<svg id="Layer_1" data-name="Layer 1" xmlns="http://www.w3.org/2000/svg" viewBox="0 0 512 512"><defs><style>.cls-1{fill:#fff;}</style></defs><path class="cls-1" d="M50.6,178.11c0-35.55.06-71.11-.08-106.66,0-3.63,1.08-5,4.61-5.8q98.55-21.5,197.08-43.15a16,16,0,0,1,6.65-.05Q357.41,44,455.93,65.6c3.63.8,4.57,2.3,4.56,5.85-.1,66.87.23,133.74-.17,200.6-.35,59.26-27.63,105.1-74,139.75-21.59,16.14-45.42,29.32-68.33,43.68-19.47,12.2-39.09,24.14-58.61,36.27-2.35,1.47-4.19,2.25-7,.51C214,468.48,175.25,445.35,137.23,421c-39.51-25.28-67.57-59.88-80.8-105.53a158.48,158.48,0,0,1-5.85-44.93C50.66,239.76,50.6,208.94,50.6,178.11Zm378.29,11.66h.21q0-46.47,0-92.94c0-3.11-.34-5-4-5.78C369.94,78.87,314.82,66.49,259.66,54.27a19.52,19.52,0,0,0-8.16,0C196.67,66.47,141.87,78.79,87,90.91c-3.88.86-5.23,2.16-5.22,6.31.16,58.05,0,116.1.24,174.15A135.11,135.11,0,0,0,85,300c8.78,39.43,31.85,69.46,64.85,91.36,33.78,22.43,68.74,43.08,103.3,64.31,1.36.84,4.33.32,5.9-.64,30.57-18.71,61-37.61,91.54-56.4,17.2-10.59,32.74-23.13,45.59-38.8,19.22-23.44,31.74-49.86,32.54-80.51C429.5,249.47,428.89,219.61,428.89,189.77Z"/></svg>